<svg width="34" height="24" viewBox="0 0 34 24" fill="none" xmlns="http://www.w3.org/2000/svg">
    <path
        d="M27.2607 10.0584C26.896 9.95255 26.5147 10.1626 26.409 10.5272C26.3032 10.8919 26.5131 11.2733 26.8777 11.379C30.0124 12.288 31.957 13.5968 31.9526 14.7948C31.9493 15.6715 30.8795 16.6299 29.0174 17.4242C26.9688 18.298 24.0647 18.9322 20.8371 19.2108L18.021 19.1623C18.0178 19.1623 18.0146 19.1622 18.0115 19.1622C17.6361 19.1608 17.3282 19.4615 17.3217 19.8379C17.3152 20.2175 17.6177 20.5306 17.9973 20.5371L20.8488 20.5862C20.8519 20.5862 20.855 20.5863 20.8581 20.5863C20.8785 20.5864 20.8989 20.5856 20.9192 20.5839C24.3025 20.2948 27.3701 19.6218 29.5569 18.689C32.6665 17.3624 33.3237 15.8419 33.3276 14.7999C33.3346 12.8788 31.18 11.1949 27.2607 10.0584Z"
        fill="#271A45" />
    <path
        d="M7.00843 9.20076C6.6288 9.19937 6.31981 9.50603 6.31841 9.88573C6.31702 10.2654 6.62375 10.5744 7.00338 10.5758L9.83043 10.5861L9.81999 13.4278L6.99294 13.4174C6.6133 13.416 6.30431 13.7226 6.30292 14.1023C6.30152 14.4821 6.60825 14.791 6.98789 14.7924L10.5024 14.8053C10.8821 14.8067 11.1911 14.5 11.1925 14.1203L11.2234 5.68709C11.2248 5.30738 10.9182 4.99846 10.5385 4.99707L7.02393 4.98415C6.64429 4.98275 6.3353 5.28941 6.33391 5.66912C6.33251 6.04882 6.63924 6.35775 7.01888 6.35914L9.84593 6.36953L9.83548 9.21115L7.00843 9.20076Z"
        fill="#271A45" />
    <path
        d="M13.3128 14.8157L17.5295 14.8312C17.9091 14.8326 18.2181 14.5259 18.2195 14.1462L18.235 9.9296C18.2364 9.54989 17.9298 9.24097 17.5501 9.23957L14.0209 9.2266L14.0313 6.38491L16.8584 6.3953C17.2381 6.3967 17.547 6.09004 17.5484 5.71033C17.5498 5.33063 17.2431 5.0217 16.8634 5.02031L13.3489 5.00739C12.9692 5.006 12.6602 5.31266 12.6588 5.69236L12.6279 14.1257C12.6265 14.5054 12.9331 14.8143 13.3128 14.8157ZM14.0158 10.6015L16.8575 10.612L16.8471 13.4536L14.0054 13.4431L14.0158 10.6015Z"
        fill="#271A45" />
    <path
        d="M20.3419 14.8415L24.5586 14.857C24.9382 14.8584 25.2472 14.5517 25.2486 14.172L25.2796 5.73874C25.281 5.35904 24.9743 5.05012 24.5946 5.04872L20.378 5.03323C19.9983 5.03183 19.6893 5.33849 19.6879 5.71819L19.657 14.1515C19.6556 14.5312 19.9623 14.8401 20.3419 14.8415ZM21.0604 6.41074L23.9021 6.42119L23.8762 13.4795L21.0345 13.4691L21.0604 6.41074Z"
        fill="#271A45" />
    <path
        d="M12.8925 16.524C12.6484 16.2332 12.2147 16.1954 11.9239 16.4396C11.6331 16.6837 11.5954 17.1173 11.8395 17.4081L13.3704 19.2315C10.1266 18.9722 7.19011 18.3667 5.03252 17.5062C2.91295 16.6607 1.6993 15.632 1.70279 14.6836C1.70683 13.5824 3.34303 12.4017 6.07957 11.5251C6.44121 11.4093 6.64043 11.0223 6.5246 10.6606C6.40885 10.2991 6.02169 10.0998 5.66019 10.2156C4.06819 10.7255 2.805 11.3345 1.90561 12.0255C0.862191 12.8274 0.33132 13.7199 0.327797 14.6786C0.32196 16.267 1.77274 17.6863 4.52313 18.7833C6.75864 19.6749 9.75817 20.306 13.0571 20.5855L11.6804 22.1001C11.425 22.3811 11.4456 22.8159 11.7267 23.0713C11.8577 23.1904 12.0222 23.2494 12.1863 23.25C12.3741 23.2507 12.5615 23.1749 12.6978 23.025L15.2096 20.2618C15.324 20.136 15.3877 19.9721 15.3884 19.8019L15.3885 19.7494C15.3891 19.5868 15.3321 19.4293 15.2276 19.3048L12.8925 16.524Z"
        fill="#271A45" />
    <path
        d="M26.5857 5.0207L29.3961 5.03103C29.7757 5.03242 30.0847 4.72576 30.0861 4.34606L30.0965 1.53461C30.0979 1.15491 29.7911 0.845988 29.4115 0.844593L26.6011 0.834265C26.2214 0.83287 25.9125 1.13953 25.9111 1.51923L25.9007 4.33068C25.8993 4.71038 26.2061 5.0193 26.5857 5.0207ZM27.2835 2.21178L28.7189 2.21706L28.7137 3.65351L27.2782 3.64823L27.2835 2.21178Z"
        fill="#271A45" />
</svg>